<?xml version="1.0" encoding="iso-8859-1"?>
<!DOCTYPE svg PUBLIC "-//W3C//DTD SVG 1.1//EN" "http://www.w3.org/Graphics/SVG/1.1/DTD/svg11.dtd">
<svg 
 version="1.1" xmlns="http://www.w3.org/2000/svg" xmlns:xlink="http://www.w3.org/1999/xlink" x="0px" y="0px" width="512px"
	 height="512px" viewBox="0 0 512 512" style="enable-background:new 0 0 512 512;" xml:space="preserve"
><g id="afcae5a789ccd549f9c6e2a2f8173a7f"><g></g><g fill="#ffffff"><path style="display: inline;" d="M468.917,106.958H43.083c-23.421,0-42.583,19.162-42.583,42.583v212.917
		c0,23.421,19.163,42.584,42.583,42.584h425.833c23.421,0,42.583-19.163,42.583-42.584V149.541
		C511.5,126.12,492.338,106.958,468.917,106.958z M490.208,362.458c0,11.74-9.552,21.292-21.291,21.292H43.083
		c-11.74,0-21.292-9.552-21.292-21.292V149.541c0-11.739,9.552-21.291,21.292-21.291h425.833c11.739,0,21.291,9.552,21.291,21.291
		V362.458z M266.375,304.862h-18.95v-97.725h18.95c12.775,0,19.163,7.094,19.163,21.291v55.143
		C285.538,297.769,279.15,304.862,266.375,304.862z M43.083,362.458h425.833V149.541H43.083V362.458z M343.986,246.951
		c1.846-2.487,4.258-3.727,7.24-3.727h20.655v-21.433c0-2.828,1.347-5.323,4.042-7.478c2.694-2.162,5.889-3.243,9.581-3.243
		c3.834,0,7.028,1.081,9.581,3.243c2.558,2.154,3.834,4.649,3.834,7.478v21.433h20.439c2.695,0,5.073,1.272,7.132,3.826
		c2.059,2.545,3.09,5.564,3.09,9.049c0,3.626-1.031,6.637-3.09,9.058c-2.059,2.412-4.437,3.618-7.132,3.618H398.92v21.657
		c0,3.127-1.243,5.655-3.726,7.594c-2.487,1.938-5.714,2.902-9.689,2.902c-3.83,0-7.062-0.965-9.686-2.902
		c-2.628-1.938-3.938-4.467-3.938-7.594v-21.657h-20.655c-2.982,0-5.395-1.173-7.24-3.519c-1.847-2.354-2.766-5.397-2.766-9.157
		C341.221,252.481,342.14,249.43,343.986,246.951z M214.211,188.183c0-2.694,1.347-5.032,4.046-7.02
		c2.695-1.988,6.175-2.986,10.434-2.986h37.684c15.895,0,28.603,4.051,38.113,12.135c9.507,8.093,14.264,20.802,14.264,38.117
		v55.143c0,17.324-4.757,30.024-14.264,38.117c-9.511,8.084-22.219,12.134-38.113,12.134h-37.684c-4.258,0-7.739-0.989-10.434-2.985
		c-2.699-1.979-4.046-4.325-4.046-7.02V188.183z M82.419,188.183c0-3.26,1.63-5.747,4.898-7.452
		c3.261-1.696,7.166-2.554,11.71-2.554c4.542,0,8.442,0.857,11.71,2.554c3.26,1.705,4.895,4.192,4.895,7.452v52.165h42.372v-52.165
		c0-3.26,1.63-5.747,4.898-7.452c3.26-1.696,7.166-2.554,11.71-2.554c4.542,0,8.442,0.857,11.71,2.554
		c3.26,1.705,4.895,4.192,4.895,7.452v135.418c0,3.269-1.634,5.789-4.895,7.561c-3.269,1.771-7.169,2.661-11.71,2.661
		c-4.545,0-8.45-0.89-11.71-2.661c-3.269-1.771-4.898-4.292-4.898-7.561v-57.703h-42.372v57.703c0,3.269-1.634,5.789-4.895,7.561
		c-3.269,1.771-7.169,2.661-11.71,2.661c-4.545,0-8.45-0.89-11.71-2.661c-3.269-1.771-4.898-4.292-4.898-7.561V188.183z"></path></g></g></svg>